# xmcd
#
# Track frame offsets:
#	183
#	10343
#	22295
#	36520
#	47985
#	57115
#	68218
#	81115
#	91055
#	102255
#	115303
#	128738
#	141410
#	154428
#	165708
#	178500
#	193573
#	208350
#	218630
#	229840
#
# Disc length: 3231 seconds
#
# Revision: 1
# Processed by: cddbd v1.5.2PL0 Copyright (c) Steve Scherf et al.
# Submitted via: audiograbber 1.83.01
#
DISCID=270c9d14
DTITLE=Various Artist - Country Music's Golden Hitparade [CD 4 of 5)
DYEAR=1989
DGENRE=Country
TTITLE0=Eddy Arnold - I Wanna Play House with You
TTITLE1=Slim Whitman - Secret Love
TTITLE2=Rex Allen - Crying in the Chapel
TTITLE3=Marvin Rainwater - Half Breed
TTITLE4=George Hamilton IV - A Rose and a Baby Ruth
TTITLE5=The Everly Brothers - Devoted to You
TTITLE6=Roy Orbison - In Dreams
TTITLE7=Ned Miller - From a Jack to a King
TTITLE8=Glen Campbell - Try a Little Kinderness
TTITLE9=Johnny Horton - North to Alaska
TTITLE10=Tammy Wynette - D-I-V-O-R-C-E
TTITLE11=Bobby Bare - Four Strong Winds
TTITLE12=Jimmy Elledge - Funny how Time Slips Away
TTITLE13=The Everly Brothers - Take a Message to Mary
TTITLE14=Roy Orbison - Crying
TTITLE15=Lorne Greene - Ringo
TTITLE16=Sue Thompson - Sad Movies (Make Me Cry)
TTITLE17=The Springfields - Silver Threads and Golden Needles
TTITLE18=Bobby Goldsboro - It's too Late
TTITLE19=Elvis Presley - Don't Cry Daddy
EXTD=
EXTT0=
EXTT1=
EXTT2=
EXTT3=
EXTT4=
EXTT5=
EXTT6=
EXTT7=
EXTT8=
EXTT9=
EXTT10=
EXTT11=
EXTT12=
EXTT13=
EXTT14=
EXTT15=
EXTT16=
EXTT17=
EXTT18=
EXTT19=
PLAYORDER=
